<?xml version="1.0" encoding="UTF-8" standalone="no"?>
<svg
   xmlns:dc="http://purl.org/dc/elements/1.1/"
   xmlns:cc="http://creativecommons.org/ns#"
   xmlns:rdf="http://www.w3.org/1999/02/22-rdf-syntax-ns#"
   xmlns:svg="http://www.w3.org/2000/svg"
   xmlns="http://www.w3.org/2000/svg"
   xmlns:sodipodi="http://sodipodi.sourceforge.net/DTD/sodipodi-0.dtd"
   xmlns:inkscape="http://www.inkscape.org/namespaces/inkscape"
   id="Lager_1"
   version="1.1"
   viewBox="0 0 128 128"
   xml:space="preserve"
   inkscape:version="0.91 r13725"
   sodipodi:docname="java.svg"><metadata
     id="metadata27"><rdf:RDF><cc:Work
         rdf:about=""><dc:format>image/svg+xml</dc:format><dc:type
           rdf:resource="http://purl.org/dc/dcmitype/StillImage" /></cc:Work></rdf:RDF></metadata><defs
     id="defs25" /><sodipodi:namedview
     pagecolor="#ffffff"
     bordercolor="#666666"
     borderopacity="1"
     objecttolerance="10"
     gridtolerance="10"
     guidetolerance="10"
     inkscape:pageopacity="0"
     inkscape:pageshadow="2"
     inkscape:window-width="723"
     inkscape:window-height="480"
     id="namedview23"
     showgrid="false"
     inkscape:zoom="1.84375"
     inkscape:cx="64"
     inkscape:cy="64"
     inkscape:window-x="461"
     inkscape:window-y="174"
     inkscape:window-maximized="0"
     inkscape:current-layer="Lager_1" /><g
     id="g3"
     transform="matrix(2,0,0,2,-65.01637,-55.65339)"><g
       id="g5"><path
         d="m 54.8,77 1.7,-1 -1.9,0.5 c -2.8,0.8 -3.2,1.7 -3.2,2.4 0.2,1.8 4.8,3.2 10.1,3.2 2.8,0 6.9,-0.4 11.1,-2.2 l 0.6,-0.2 -0.6,-0.2 c -1.9,-0.8 -3.4,-1.6 -3.4,-1.6 l -0.1,-0.1 -0.1,0 c -3.4,0.6 -5.5,0.9 -7.7,0.9 -1.4,0 -2.9,-0.1 -5,-0.3 -1.9,-0.2 -2.1,-0.6 -2.1,-0.7 0,-0.3 0.3,-0.6 0.6,-0.7 z"
         style="fill:#3969b2"
         id="path7"
         inkscape:connector-curvature="0" /><path
         d="m 74.5,73.1 -0.7,-0.3 c -1.5,-0.5 -2.4,-1.5 -2.5,-1.5 l -0.1,-0.1 -0.1,0 c -4.1,0.8 -7.3,1.1 -10.5,1.1 -1.8,0 -3.6,-0.1 -6,-0.4 -1.6,-0.2 -2,-0.6 -2,-0.8 -0.1,-0.4 0.5,-1 0.7,-1.2 L 54.5,69 53,69.5 c -2.5,0.8 -3.7,1.7 -3.5,2.7 0.3,1.7 4.7,2.8 10.8,2.8 4.5,0 9.3,-0.7 13.4,-1.9 l 0.8,0 z"
         style="fill:#3969b2"
         id="path9"
         inkscape:connector-curvature="0" /><path
         d="m 63,50.5 c -0.8,2.5 0,5.3 2.5,8.1 0.8,0.9 1.2,1.9 1.1,2.9 -0.2,1.9 -1.8,3.3 -1.8,3.3 l -1.8,1.5 2.1,-1.1 c 0.2,-0.1 4.3,-2.2 5,-5.4 0.3,-1.3 0,-2.6 -0.8,-3.8 l -0.4,-0.6 c -1.3,-1.9 -2.4,-3.3 -2,-5 0.5,-2.3 3.6,-4.9 10.1,-8.7 l 1.5,-0.9 -1.7,0.4 c -0.6,0.2 -11.9,3 -13.8,9.3 z"
         style="fill:#f3492c"
         id="path11"
         inkscape:connector-curvature="0" /><path
         d="m 59.9,88.1 c 13.3,0 22.7,-2.5 23.2,-4.9 0.1,-0.4 -0.1,-1.1 -1.3,-1.7 l -1.7,-0.8 1.4,1.2 c 0,0 0.4,0.3 0.3,0.7 -0.1,0.3 -0.4,0.9 -2.2,1.4 -3.5,1.2 -11.5,2 -19.4,2 -7.4,0 -13.1,-0.6 -15.6,-1.7 -0.3,-0.1 -0.5,-0.3 -0.5,-0.4 0.1,-0.5 2.2,-1.4 3.7,-1.7 1,-0.2 1.6,-0.2 1.9,-0.2 0.1,0 0.1,0 0.1,0 L 50.7,82.1 50,81.4 C 49.6,81.1 49,81 48.2,81 c -2.9,0 -8.4,2 -8.6,3.8 -0.1,0.9 1,1.6 3.3,1.9 5.7,0.9 11.4,1.4 17,1.4 l 0,0 z"
         style="fill:#3969b2"
         id="path13"
         inkscape:connector-curvature="0" /><path
         d="m 57.4,68.6 c 6.1,0 11.8,-0.6 15.9,-1.7 l 0.1,0 c 1.2,-0.8 2.8,-1.5 2.8,-1.5 l 2,-0.9 L 76,65 c 0,0 -4.7,0.8 -9.3,1.2 -3.2,0.3 -6.6,0.4 -9.5,0.4 -2.2,0 -4.1,-0.1 -5.3,-0.3 -2.2,-0.3 -2.2,-0.7 -2.2,-0.7 0,-0.6 3.2,-1.7 6.2,-2.5 l 1.6,-0.4 -1.6,-0.1 c 0,0 -0.2,0 -0.4,0 -1.4,0 -5.1,0.2 -9.4,2.3 -0.4,0.2 -1.4,0.7 -1.3,1.4 0.2,1.8 6.9,2.3 12.6,2.3 z"
         style="fill:#3969b2"
         id="path15"
         inkscape:connector-curvature="0" /><path
         d="m 77,63.4 -0.4,0.7 0.7,-0.3 c 0,0 0.4,-0.2 1.3,-0.3 0.2,0 0.4,-0.1 0.7,-0.1 1.4,0 3.1,0.9 3.5,2.6 0.3,1.2 0.2,4.4 -6.8,8 l -0.1,0 0,0.1 c 0,0.1 -0.1,0.2 -0.2,0.2 l -0.8,0.7 1,-0.3 c 7.9,-2.1 10.4,-5.8 10,-8.6 -0.3,-2.4 -2.5,-4.1 -5.3,-4.1 -0.8,0 -1.6,0.1 -2.4,0.4 -0.8,0.4 -1.2,1 -1.2,1 z"
         style="fill:#3969b2"
         id="path17"
         inkscape:connector-curvature="0" /><path
         d="m 62.7,63 0.9,0.8 -0.5,-1.1 C 62.6,61.5 61.7,60.3 60.9,59.2 58.2,55.3 55.4,51.4 63,45.4 68,41.5 70.6,37.6 70.8,33.9 71,30.6 69.2,28.8 69.1,28.7 l -0.6,-0.7 0.2,0.9 c 1.7,6.7 -2.9,10.3 -7.4,13.8 -2.2,1.8 -4.5,3.6 -6,5.7 -3,4.6 1.8,9.5 7.4,14.6 z"
         style="fill:#f3492c"
         id="path19"
         inkscape:connector-curvature="0" /><path
         d="m 85.4,84.8 c 0,0 -1,1.9 -9,3.4 -4.6,0.9 -10,1.3 -15.6,1.3 -4.6,0 -9.1,-0.3 -12.5,-0.9 l -0.9,-0.2 0.8,0.6 c 0.2,0.1 1.8,1.2 8.9,1.7 2,0.1 4.2,0.2 6.3,0.2 l 0,0 c 10.7,0 22.3,-1.6 22.6,-6.1 l 0.1,-1.4 -0.7,1.4 z"
         style="fill:#3969b2"
         id="path21"
         inkscape:connector-curvature="0" /></g></g></svg>