<svg version="1.1" xmlns="http://www.w3.org/2000/svg" xmlns:xlink="http://www.w3.org/1999/xlink" >
<g transform= "translate (28,0) scale(0.0275) rotate(90)" fill="#428bca">
<path d="M10,498.2L10,498.2c0,67.1,54.4,121.4,121.4,121.4c67.1,0,121.4-54.4,121.4-121.4l0,0l0,0c0-67.1-54.4-121.4-121.4-121.4C64.4,376.8,10,431.1,10,498.2C10,565.3,10,498.2,10,498.2L10,498.2z"/>
<path d="M747.1,498.2c0,67.1,54.4,121.4,121.4,121.4c67.1,0,121.4-54.4,121.4-121.4c0-67.1-54.4-121.4-121.4-121.4C801.5,376.8,747.1,431.1,747.1,498.2L747.1,498.2z"/>
<path d="M747.1,132.7c0,67.1,54.4,121.4,121.4,121.4c67.1,0,121.4-54.4,121.4-121.4c0-67.1-54.4-121.4-121.4-121.4C801.5,11.2,747.1,65.6,747.1,132.7z"/>
<path d="M747.1,867.3c0,67.1,54.4,121.4,121.4,121.4c67.1,0,121.4-54.4,121.4-121.4s-54.4-121.4-121.4-121.4C801.5,745.9,747.1,800.3,747.1,867.3z"/>

<path d="M237.30011786369414,463.29998779296875 h437.45676715390437 v67.30000305175781 H237.30011786369414 V463.29998779296875 z"/>
<path d="M346.7,498L577.2,98.5l58.3,33.6L405,531.7L346.7,498z"/>
<path d="M577.2,900.8L346.7,501.3l58.3-33.6l230.5,399.5L577.2,900.8z"/>
<path d="M577.6992450452351,97.80000305175781 h92.28571653366089 v67.30000305175781 h-92.28571653366089 V97.80000305175781 z"/>
<path d="M577.6006892939185,833.7000122070312 h98.22718150889159 V901 H577.6006892939185 V833.7000122070312 z"/>

<path d="M670.0000085830688,201.71428298950195 L670.0000085830688,68.57143020629883 L752.8571252822876,134.28570938110352 L670.0000085830688,201.71428298950195 z" />
<path d="M661.4285802841187,680.2857360839844 L661.4285802841187,547.1428833007812 L744.2856969833374,612.8571624755859 L661.4285802841187,680.2857360839844 z" transform="translate(5.71429, 254.286)"/>
<path d="M672.8571519851685,563.1428527832031 L672.8571519851685,430 L755.7142686843872,495.7142791748047 L672.8571519851685,563.1428527832031 z"/>
</g></svg>