<?xml version="1.0" encoding="UTF-8" standalone="no"?>
<!-- Svg Vector Icons : http://www.onlinewebfonts.com/icon -->

<svg xmlns:svg="http://www.w3.org/2000/svg"
   xmlns="http://www.w3.org/2000/svg">
    <g transform= "translate (0,28) scale(0.0275) rotate(270)" fill="#428bca">
        <path
       d="m 10,498.2 0,0 c 0,67.1 54.4,121.4 121.4,121.4 67.1,0 121.4,-54.4 121.4,-121.4 l 0,0 0,0 c 0,-67.1 -54.4,-121.4 -121.4,-121.4 -67,0 -121.4,54.3 -121.4,121.4 0,67.1 0,0 0,0 l 0,0 z"
       id="path8"
       />
        <path
       d="m 747.1,498.2 c 0,67.1 54.4,121.4 121.4,121.4 67.1,0 121.4,-54.4 121.4,-121.4 0,-67.1 -54.4,-121.4 -121.4,-121.4 -67,0 -121.4,54.3 -121.4,121.4 l 0,0 z"
       id="path10"
       />
        <path
       d="m 747.1,132.7 c 0,67.1 54.4,121.4 121.4,121.4 67.1,0 121.4,-54.4 121.4,-121.4 0,-67.1 -54.4,-121.4 -121.4,-121.4 -67,-0.1 -121.4,54.3 -121.4,121.4 z"
       id="path12"
       />
        <path
       d="m 747.1,867.3 c 0,67.1 54.4,121.4 121.4,121.4 67.1,0 121.4,-54.4 121.4,-121.4 0,-67 -54.4,-121.4 -121.4,-121.4 -67,0 -121.4,54.4 -121.4,121.4 z"
       id="path14"
       />
        <path
       d="m 349.90124,398.39258 0.0414,65.65648 L 751.9,463.3 l 0,67.3 -401.90461,-0.56179 0.0932,66.48309 -113.60466,-97.51529 z"
       id="path16"/>
        <path
       d="M 346.7,498 577.2,98.5 635.5,132.1 405,531.7 346.7,498 Z"
       id="path18"
       />
        <path
       d="M 577.2,900.8 346.7,501.3 405,467.7 635.5,867.2 577.2,900.8 Z"
       id="path20"
       />
        <path
       d="m 576.4,97.8 178,0 0,67.3 -178,0 0,-67.3 0,0 z"
       id="path22"
       />
        <path
       d="m 577.6,833.7 176.8,0 0,67.3 -176.8,0 0,-67.3 z"
       id="path24"
       /></g></svg>